<svg xmlns="http://www.w3.org/2000/svg" version="1.1" xmlns:xlink="http://www.w3.org/1999/xlink" xmlns:svgjs="http://svgjs.dev/svgjs" width="2000" height="363" viewBox="0 0 2000 363"><g transform="matrix(1,0,0,1,-1.2121212121212466,-0.6053718082574733)"><svg viewBox="0 0 396 72" data-background-color="#ffffff" preserveAspectRatio="xMidYMid meet" height="363" width="2000" xmlns="http://www.w3.org/2000/svg" xmlns:xlink="http://www.w3.org/1999/xlink"><g id="tight-bounds" transform="matrix(1,0,0,1,0.2400000000000091,0.12007374709239116)"><svg viewBox="0 0 395.52 71.75985250581519" height="71.75985250581519" width="395.52"><g><svg viewBox="0 0 395.52 71.75985250581519" height="71.75985250581519" width="395.52"><g><svg viewBox="0 0 395.52 71.75985250581519" height="71.75985250581519" width="395.52"><g><svg viewBox="0 0 613.4140334251797 111.29272998479998" height="71.75985250581519" width="395.52"><g transform="matrix(1,0,0,1,0,7.367618423308556)"><svg viewBox="0 0 395.5199999999999 96.55749313818286" height="96.55749313818286" width="395.5199999999999"><g id="textblocktransform"><svg viewBox="0 0 395.5199999999999 96.55749313818286" height="96.55749313818286" width="395.5199999999999" id="textblock"><g><svg viewBox="0 0 395.5199999999999 53.252728041731274" height="53.252728041731274" width="395.5199999999999"><g transform="matrix(1,0,0,1,0,0)"><svg width="395.5199999999999" viewBox="1.5 -36.5 354.62 47.75" height="53.252728041731274" data-palette-color="#fb8500"><path d="M1.5-7.55L1.5-7.55Q1.5-10.05 2.93-11.88 4.35-13.7 6.85-14.7 9.35-15.7 12.65-15.7L12.65-15.7Q14.4-15.7 16.35-15.43 18.3-15.15 19.8-14.6L19.8-14.6 19.8-16.5Q19.8-19.5 18-21.23 16.2-22.95 12.9-22.95L12.9-22.95Q10.75-22.95 8.78-22.18 6.8-21.4 4.6-19.95L4.6-19.95 3-23.05Q5.55-24.8 8.1-25.68 10.65-26.55 13.4-26.55L13.4-26.55Q18.4-26.55 21.3-23.78 24.2-21 24.2-16.05L24.2-16.05 24.2-5Q24.2-4.2 24.53-3.83 24.85-3.45 25.6-3.4L25.6-3.4 25.6 0Q24.95 0.1 24.48 0.15 24 0.2 23.7 0.2L23.7 0.2Q22.15 0.2 21.38-0.65 20.6-1.5 20.5-2.45L20.5-2.45 20.4-4.1Q18.7-1.9 15.95-0.7 13.2 0.5 10.5 0.5L10.5 0.5Q7.9 0.5 5.85-0.58 3.8-1.65 2.65-3.48 1.5-5.3 1.5-7.55ZM18.5-5.7L18.5-5.7Q19.1-6.4 19.45-7.13 19.8-7.85 19.8-8.35L19.8-8.35 19.8-11.6Q18.25-12.2 16.55-12.53 14.85-12.85 13.2-12.85L13.2-12.85Q9.85-12.85 7.78-11.53 5.7-10.2 5.7-7.9L5.7-7.9Q5.7-6.65 6.38-5.48 7.05-4.3 8.38-3.55 9.7-2.8 11.65-2.8L11.65-2.8Q13.7-2.8 15.55-3.63 17.4-4.45 18.5-5.7ZM31.35-5.15L31.35-36.5 35.75-36.5 35.75-6.75Q35.75-4.6 36.35-4.1 36.95-3.6 37.8-3.6L37.8-3.6Q38.85-3.6 39.8-3.83 40.75-4.05 41.4-4.3L41.4-4.3 42.1-0.7Q41-0.25 39.5 0.05 38 0.35 36.85 0.35L36.85 0.35Q34.3 0.35 32.82-1.1 31.35-2.55 31.35-5.15L31.35-5.15ZM45.65-5.15L45.65-36.5 50.05-36.5 50.05-6.75Q50.05-4.6 50.65-4.1 51.25-3.6 52.1-3.6L52.1-3.6Q53.15-3.6 54.1-3.83 55.05-4.05 55.7-4.3L55.7-4.3 56.4-0.7Q55.3-0.25 53.8 0.05 52.3 0.35 51.15 0.35L51.15 0.35Q48.6 0.35 47.12-1.1 45.65-2.55 45.65-5.15L45.65-5.15ZM70.24 0.3L70.24 0.3Q67.59 0.3 65.37-0.78 63.14-1.85 61.54-3.73 59.94-5.6 59.07-8 58.19-10.4 58.19-13L58.19-13Q58.19-15.75 59.07-18.2 59.94-20.65 61.57-22.53 63.19-24.4 65.39-25.48 67.59-26.55 70.29-26.55L70.29-26.55Q73.54-26.55 75.97-24.95 78.39-23.35 80.04-20.9L80.04-20.9 80.04-26.1 83.94-26.1 83.94-0.3Q83.94 3.4 82.17 5.95 80.39 8.5 77.37 9.83 74.34 11.15 70.64 11.15L70.64 11.15Q66.24 11.15 63.44 9.6 60.64 8.05 58.79 5.4L58.79 5.4 61.34 3.15Q62.89 5.45 65.37 6.6 67.84 7.75 70.64 7.75L70.64 7.75Q73.04 7.75 75.07 6.88 77.09 6 78.32 4.2 79.54 2.4 79.54-0.3L79.54-0.3 79.54-4.9Q78.09-2.5 75.57-1.1 73.04 0.3 70.24 0.3ZM71.59-3.3L71.59-3.3Q72.99-3.3 74.29-3.8 75.59-4.3 76.69-5.13 77.79-5.95 78.54-7 79.29-8.05 79.54-9.15L79.54-9.15 79.54-16.65Q78.84-18.45 77.54-19.83 76.24-21.2 74.59-21.98 72.94-22.75 71.19-22.75L71.19-22.75Q69.19-22.75 67.62-21.9 66.04-21.05 64.94-19.63 63.84-18.2 63.24-16.45 62.64-14.7 62.64-12.9L62.64-12.9Q62.64-10.95 63.34-9.22 64.04-7.5 65.24-6.15 66.44-4.8 68.09-4.05 69.74-3.3 71.59-3.3ZM102.44 0.5L102.44 0.5Q99.49 0.5 97.09-0.58 94.69-1.65 92.94-3.53 91.19-5.4 90.24-7.85 89.29-10.3 89.29-13L89.29-13Q89.29-15.75 90.24-18.2 91.19-20.65 92.94-22.53 94.69-24.4 97.12-25.48 99.54-26.55 102.49-26.55L102.49-26.55Q105.39-26.55 107.79-25.48 110.19-24.4 111.97-22.53 113.74-20.65 114.69-18.2 115.64-15.75 115.64-13L115.64-13Q115.64-10.3 114.69-7.85 113.74-5.4 111.99-3.53 110.24-1.65 107.82-0.58 105.39 0.5 102.44 0.5ZM93.79-12.95L93.79-12.95Q93.79-10.25 94.97-8.05 96.14-5.85 98.09-4.58 100.04-3.3 102.44-3.3L102.44-3.3Q104.84-3.3 106.82-4.6 108.79-5.9 109.97-8.13 111.14-10.35 111.14-13.05L111.14-13.05Q111.14-15.75 109.97-17.95 108.79-20.15 106.82-21.45 104.84-22.75 102.44-22.75L102.44-22.75Q100.04-22.75 98.09-21.43 96.14-20.1 94.97-17.9 93.79-15.7 93.79-12.95ZM132.39 0.5L132.39 0.5Q129.44 0.5 127.04-0.58 124.64-1.65 122.89-3.53 121.14-5.4 120.19-7.85 119.24-10.3 119.24-13L119.24-13Q119.24-15.75 120.19-18.2 121.14-20.65 122.89-22.53 124.64-24.4 127.06-25.48 129.49-26.55 132.44-26.55L132.44-26.55Q135.34-26.55 137.74-25.48 140.14-24.4 141.91-22.53 143.69-20.65 144.64-18.2 145.59-15.75 145.59-13L145.59-13Q145.59-10.3 144.64-7.85 143.69-5.4 141.94-3.53 140.19-1.65 137.76-0.58 135.34 0.5 132.39 0.5ZM123.74-12.95L123.74-12.95Q123.74-10.25 124.91-8.05 126.09-5.85 128.04-4.58 129.99-3.3 132.39-3.3L132.39-3.3Q134.79-3.3 136.76-4.6 138.74-5.9 139.91-8.13 141.09-10.35 141.09-13.05L141.09-13.05Q141.09-15.75 139.91-17.95 138.74-20.15 136.76-21.45 134.79-22.75 132.39-22.75L132.39-22.75Q129.99-22.75 128.04-21.43 126.09-20.1 124.91-17.9 123.74-15.7 123.74-12.95ZM149.24-13L149.24-13Q149.24-16.7 150.76-19.78 152.29-22.85 154.96-24.7 157.64-26.55 161.09-26.55L161.09-26.55Q164.24-26.55 166.74-24.9 169.24-23.25 170.64-20.9L170.64-20.9 170.64-36.5 175.04-36.5 175.04-5Q175.04-4.2 175.36-3.83 175.69-3.45 176.44-3.4L176.44-3.4 176.44 0Q175.19 0.2 174.49 0.2L174.49 0.2Q173.19 0.2 172.21-0.7 171.24-1.6 171.24-2.7L171.24-2.7 171.24-4.9Q169.69-2.4 167.09-0.95 164.49 0.5 161.69 0.5L161.69 0.5Q158.99 0.5 156.71-0.58 154.44-1.65 152.76-3.55 151.09-5.45 150.16-7.88 149.24-10.3 149.24-13ZM170.64-9.15L170.64-9.15 170.64-16.65Q170.04-18.35 168.69-19.73 167.34-21.1 165.66-21.93 163.99-22.75 162.34-22.75L162.34-22.75Q160.39-22.75 158.81-21.93 157.24-21.1 156.11-19.73 154.99-18.35 154.39-16.6 153.79-14.85 153.79-12.95L153.79-12.95Q153.79-11 154.46-9.25 155.14-7.5 156.36-6.15 157.59-4.8 159.21-4.05 160.84-3.3 162.74-3.3L162.74-3.3Q163.94-3.3 165.21-3.75 166.49-4.2 167.64-5 168.79-5.8 169.59-6.88 170.39-7.95 170.64-9.15ZM191.33 0.5L191.33 0.5Q188.08 0.5 185.23-0.58 182.38-1.65 180.33-3.8L180.33-3.8 182.03-6.9Q184.28-4.8 186.53-3.9 188.78-3 191.13-3L191.13-3Q193.83-3 195.53-4.03 197.23-5.05 197.23-7.05L197.23-7.05Q197.23-8.5 196.36-9.2 195.48-9.9 193.88-10.38 192.28-10.85 190.08-11.45L190.08-11.45Q187.38-12.25 185.53-13.15 183.68-14.05 182.73-15.4 181.78-16.75 181.78-18.8L181.78-18.8Q181.78-21.3 183.08-23.03 184.38-24.75 186.66-25.65 188.93-26.55 191.83-26.55L191.83-26.55Q194.73-26.55 197.08-25.65 199.43-24.75 201.13-23L201.13-23 199.13-19.95Q197.58-21.55 195.73-22.33 193.88-23.1 191.58-23.1L191.58-23.1Q190.23-23.1 188.93-22.78 187.63-22.45 186.78-21.63 185.93-20.8 185.93-19.3L185.93-19.3Q185.93-18.05 186.61-17.32 187.28-16.6 188.61-16.1 189.93-15.6 191.83-15L191.83-15Q194.78-14.15 196.96-13.3 199.13-12.45 200.33-11.1 201.53-9.75 201.53-7.35L201.53-7.35Q201.53-3.65 198.73-1.58 195.93 0.5 191.33 0.5ZM217.18 0.3L217.18 0.3Q214.53 0.3 212.31-0.78 210.08-1.85 208.48-3.73 206.88-5.6 206.01-8 205.13-10.4 205.13-13L205.13-13Q205.13-15.75 206.01-18.2 206.88-20.65 208.51-22.53 210.13-24.4 212.33-25.48 214.53-26.55 217.23-26.55L217.23-26.55Q220.48-26.55 222.91-24.95 225.33-23.35 226.98-20.9L226.98-20.9 226.98-26.1 230.88-26.1 230.88-0.3Q230.88 3.4 229.11 5.95 227.33 8.5 224.31 9.83 221.28 11.15 217.58 11.15L217.58 11.15Q213.18 11.15 210.38 9.6 207.58 8.05 205.73 5.4L205.73 5.4 208.28 3.15Q209.83 5.45 212.31 6.6 214.78 7.75 217.58 7.75L217.58 7.75Q219.98 7.75 222.01 6.88 224.03 6 225.26 4.2 226.48 2.4 226.48-0.3L226.48-0.3 226.48-4.9Q225.03-2.5 222.51-1.1 219.98 0.3 217.18 0.3ZM218.53-3.3L218.53-3.3Q219.93-3.3 221.23-3.8 222.53-4.3 223.63-5.13 224.73-5.95 225.48-7 226.23-8.05 226.48-9.15L226.48-9.15 226.48-16.65Q225.78-18.45 224.48-19.83 223.18-21.2 221.53-21.98 219.88-22.75 218.13-22.75L218.13-22.75Q216.13-22.75 214.56-21.9 212.98-21.05 211.88-19.63 210.78-18.2 210.18-16.45 209.58-14.7 209.58-12.9L209.58-12.9Q209.58-10.95 210.28-9.22 210.98-7.5 212.18-6.15 213.38-4.8 215.03-4.05 216.68-3.3 218.53-3.3ZM235.93-7.55L235.93-7.55Q235.93-10.05 237.35-11.88 238.78-13.7 241.28-14.7 243.78-15.7 247.08-15.7L247.08-15.7Q248.83-15.7 250.78-15.43 252.73-15.15 254.23-14.6L254.23-14.6 254.23-16.5Q254.23-19.5 252.43-21.23 250.63-22.95 247.33-22.95L247.33-22.95Q245.18-22.95 243.2-22.18 241.23-21.4 239.03-19.95L239.03-19.95 237.43-23.05Q239.98-24.8 242.53-25.68 245.08-26.55 247.83-26.55L247.83-26.55Q252.83-26.55 255.73-23.78 258.63-21 258.63-16.05L258.63-16.05 258.63-5Q258.63-4.2 258.95-3.83 259.28-3.45 260.03-3.4L260.03-3.4 260.03 0Q259.38 0.1 258.9 0.15 258.43 0.2 258.13 0.2L258.13 0.2Q256.58 0.2 255.8-0.65 255.03-1.5 254.93-2.45L254.93-2.45 254.83-4.1Q253.13-1.9 250.38-0.7 247.63 0.5 244.93 0.5L244.93 0.5Q242.33 0.5 240.28-0.58 238.23-1.65 237.08-3.48 235.93-5.3 235.93-7.55ZM252.93-5.7L252.93-5.7Q253.53-6.4 253.88-7.13 254.23-7.85 254.23-8.35L254.23-8.35 254.23-11.6Q252.68-12.2 250.98-12.53 249.28-12.85 247.63-12.85L247.63-12.85Q244.28-12.85 242.2-11.53 240.13-10.2 240.13-7.9L240.13-7.9Q240.13-6.65 240.8-5.48 241.48-4.3 242.8-3.55 244.13-2.8 246.08-2.8L246.08-2.8Q248.13-2.8 249.98-3.63 251.83-4.45 252.93-5.7ZM265.78-5.15L265.78-36.5 270.18-36.5 270.18-6.75Q270.18-4.6 270.78-4.1 271.38-3.6 272.23-3.6L272.23-3.6Q273.28-3.6 274.23-3.83 275.18-4.05 275.83-4.3L275.83-4.3 276.53-0.7Q275.43-0.25 273.93 0.05 272.43 0.35 271.28 0.35L271.28 0.35Q268.73 0.35 267.25-1.1 265.78-2.55 265.78-5.15L265.78-5.15ZM277.92-7.55L277.92-7.55Q277.92-10.05 279.35-11.88 280.77-13.7 283.27-14.7 285.77-15.7 289.07-15.7L289.07-15.7Q290.82-15.7 292.77-15.43 294.72-15.15 296.22-14.6L296.22-14.6 296.22-16.5Q296.22-19.5 294.42-21.23 292.62-22.95 289.32-22.95L289.32-22.95Q287.17-22.95 285.2-22.18 283.22-21.4 281.02-19.95L281.02-19.95 279.42-23.05Q281.97-24.8 284.52-25.68 287.07-26.55 289.82-26.55L289.82-26.55Q294.82-26.55 297.72-23.78 300.62-21 300.62-16.05L300.62-16.05 300.62-5Q300.62-4.2 300.95-3.83 301.27-3.45 302.02-3.4L302.02-3.4 302.02 0Q301.37 0.1 300.9 0.15 300.42 0.2 300.12 0.2L300.12 0.2Q298.57 0.2 297.8-0.65 297.02-1.5 296.92-2.45L296.92-2.45 296.82-4.1Q295.12-1.9 292.37-0.7 289.62 0.5 286.92 0.5L286.92 0.5Q284.32 0.5 282.27-0.58 280.22-1.65 279.07-3.48 277.92-5.3 277.92-7.55ZM294.92-5.7L294.92-5.7Q295.52-6.4 295.87-7.13 296.22-7.85 296.22-8.35L296.22-8.35 296.22-11.6Q294.67-12.2 292.97-12.53 291.27-12.85 289.62-12.85L289.62-12.85Q286.27-12.85 284.2-11.53 282.12-10.2 282.12-7.9L282.12-7.9Q282.12-6.65 282.8-5.48 283.47-4.3 284.8-3.55 286.12-2.8 288.07-2.8L288.07-2.8Q290.12-2.8 291.97-3.63 293.82-4.45 294.92-5.7ZM304.77-26.1L309.62-26.1 316.52-16.5 316.92-15.7 317.37-16.5 324.22-26.1 329.12-26.1 319.47-13 329.17 0 324.27 0 317.37-9.55 316.92-10.3 316.52-9.55 309.62 0 304.72 0 314.42-13 304.77-26.1ZM334.52 11L334.52 7.1Q335.17 7.15 335.82 7.23 336.47 7.3 336.82 7.3L336.82 7.3Q337.62 7.3 338.22 6.75 338.82 6.2 339.54 4.63 340.27 3.05 341.42 0L341.42 0 330.37-26.1 335.02-26.1 343.82-4.45 351.77-26.1 356.12-26.1 343.42 6.85Q342.97 8 342.09 9.03 341.22 10.05 339.87 10.65 338.52 11.25 336.62 11.25L336.62 11.25Q336.17 11.25 335.69 11.2 335.22 11.15 334.52 11L334.52 11Z" opacity="1" transform="matrix(1,0,0,1,0,0)" fill="#fb8500" class="wordmark-text-0" data-fill-palette-color="primary" id="text-0"></path></svg></g></svg></g><g transform="matrix(1,0,0,1,0,65.82441906691102)"><svg viewBox="0 0 395.5199999999999 30.73307407127184" height="30.73307407127184" width="395.5199999999999"><g transform="matrix(1,0,0,1,0,0)"><svg width="395.5199999999999" viewBox="4.2 -43 660.78 51.35" height="30.73307407127184" data-palette-color="#fb8500"><path d="M8.2-35.85L8.2-35.85 24.05-35.85Q29-35.85 29-33.35L29-33.35Q29-31.85 27.55-31.25L27.55-31.25Q26.1-32.55 23.3-32.55L23.3-32.55 9.65-32.55 9.65-20.15 20.2-20.15Q22.95-20.15 24.1-19.73 25.25-19.3 25.25-18.07 25.25-16.85 24.05-16.15L24.05-16.15Q22.7-16.85 19.8-16.85L19.8-16.85 9.65-16.85 9.65-3.1Q9.65-1.65 10.9-1.15L10.9-1.15Q9.85 0.45 8.25 0.45L8.25 0.45Q5.45 0.45 5.45-3.05L5.45-3.05 5.45-32.05Q5.45-33.55 4.2-34.05L4.2-34.05Q5.4-35.85 8.2-35.85ZM39.15-22.35L39.15-22.35 39.15-20.5Q41.25-25.85 46.1-25.85L46.1-25.85Q48.45-25.85 49.75-24.65 51.05-23.45 51.05-21.88 51.05-20.3 50.25-19.48 49.45-18.65 48.6-18.65 47.75-18.65 47.05-18.85L47.05-18.85Q47.15-19.35 47.15-20.15L47.15-20.15Q47.15-22.65 44.65-22.65L44.65-22.65Q43-22.65 41.4-21 39.8-19.35 39.15-15.95L39.15-15.95 39.15-3.1Q39.15-1.65 40.4-1.15L40.4-1.15Q39.35 0.45 37.8 0.45L37.8 0.45Q35 0.45 35-3.05L35-3.05 35-22.25Q35-23.7 33.75-24.25L33.75-24.25Q34.7-25.85 36.35-25.85L36.35-25.85Q39.15-25.85 39.15-22.35ZM71.17-20.38Q68.9-23 65.45-23 62-23 60.1-20.63 58.2-18.25 58.2-13.65L58.2-13.65Q58.2-7.7 60.52-5.03 62.85-2.35 66.3-2.35 69.75-2.35 71.6-4.75 73.45-7.15 73.45-11.75L73.45-11.75Q73.45-17.75 71.17-20.38ZM57.42-22.4Q60.9-25.85 65.85-25.85 70.8-25.85 74.27-22.38 77.75-18.9 77.75-12.68 77.75-6.45 74.27-3 70.8 0.45 65.85 0.45 60.9 0.45 57.42-3 53.95-6.45 53.95-12.7 53.95-18.95 57.42-22.4ZM122.04-17.25L122.04-17.25 122.04-3.1Q122.04-1.7 123.29-1.15L123.29-1.15Q122.39 0.45 120.69 0.45L120.69 0.45Q117.89 0.45 117.89-3.05L117.89-3.05 117.89-16.95Q117.89-22.2 113.29-22.2L113.29-22.2Q110.79-22.2 108.54-20.15 106.29-18.1 105.44-14.65L105.44-14.65 105.44-3.1Q105.44-1.7 106.74-1.15L106.74-1.15Q105.69 0.45 104.09 0.45L104.09 0.45Q101.34 0.45 101.34-3.05L101.34-3.05 101.34-16.95Q101.34-22.2 96.74-22.2L96.74-22.2Q94.24-22.2 91.99-20.2 89.74-18.2 88.89-14.85L88.89-14.85 88.89-3.1Q88.89-1.65 90.14-1.15L90.14-1.15Q89.09 0.45 87.54 0.45L87.54 0.45Q84.74 0.45 84.74-3.05L84.74-3.05 84.74-22.25Q84.74-23.7 83.49-24.25L83.49-24.25Q84.44-25.85 86.09-25.85L86.09-25.85Q88.89-25.85 88.89-22.35L88.89-22.35 88.89-19.75Q90.19-22.45 92.59-24.15 94.99-25.85 97.99-25.85 100.99-25.85 102.92-24.2 104.84-22.55 105.29-19.25L105.29-19.25Q106.44-22.1 108.94-23.98 111.44-25.85 114.72-25.85 117.99-25.85 120.02-23.68 122.04-21.5 122.04-17.25ZM156.59-29.05L150.14-11.5 162.19-11.5 156.59-29.05ZM171.19-0.85L171.19-0.85Q170.39 0.45 168.86 0.45 167.34 0.45 166.59-0.2 165.84-0.85 165.29-2.55L165.29-2.55 163.24-8.45 148.99-8.45 146.89-3Q145.59 0.45 143.59 0.45L143.59 0.45Q141.89 0.45 141.24-1.25L141.24-1.25Q142.39-1.7 143.04-3.6L143.04-3.6 154.79-33.25Q154.24-34.6 153.54-35.25L153.54-35.25Q154.69-36.25 155.91-36.25 157.14-36.25 157.81-35.5 158.49-34.75 159.09-33.1L159.09-33.1 169.29-3.4Q169.99-1.35 171.19-0.85ZM195.18-22.2L194.48-22.2 194.48-6.35Q194.48-4.5 195.21-3.7 195.93-2.9 197.58-2.9L197.58-2.9Q200.68-2.9 203.43-5.55L203.43-5.55Q204.28-5.1 204.28-4.1L204.28-4.1Q204.28-2.4 202.08-0.98 199.88 0.45 196.68 0.45L196.68 0.45Q190.28 0.45 190.28-6.2L190.28-6.2 190.28-22.2Q186.23-22.35 186.23-24.15L186.23-24.15Q186.23-25.1 186.83-25.6L186.83-25.6Q188.58-25.35 189.53-25.35L189.53-25.35 190.28-25.35 190.28-29.4Q190.28-30.8 189.03-31.4L189.03-31.4Q190.03-32.95 191.63-32.95L191.63-32.95Q194.48-32.95 194.48-29.45L194.48-29.45 194.48-25.35 202.88-25.35Q203.08-25 203.08-24.5L203.08-24.5Q203.08-22.2 195.18-22.2L195.18-22.2ZM225.31-20.38Q223.03-23 219.58-23 216.13-23 214.23-20.63 212.33-18.25 212.33-13.65L212.33-13.65Q212.33-7.7 214.66-5.03 216.98-2.35 220.43-2.35 223.88-2.35 225.73-4.75 227.58-7.15 227.58-11.75L227.58-11.75Q227.58-17.75 225.31-20.38ZM211.56-22.4Q215.03-25.85 219.98-25.85 224.93-25.85 228.41-22.38 231.88-18.9 231.88-12.68 231.88-6.45 228.41-3 224.93 0.45 219.98 0.45 215.03 0.45 211.56-3 208.08-6.45 208.08-12.7 208.08-18.95 211.56-22.4ZM275.78-2.9L275.78-2.9Q275.78 0 269.43 0L269.43 0 253.98 0Q252.38 0 251.4-0.85 250.43-1.7 250.43-2.98 250.43-4.25 252.18-6.45L252.18-6.45 271.68-32.75Q264.18-31.95 257.63-31.95 251.08-31.95 251.08-34.8L251.08-34.8Q251.08-35.85 251.93-36.55L251.93-36.55Q253.88-35.85 257.18-35.85L257.18-35.85 272.18-35.85Q273.83-35.85 274.8-35 275.78-34.15 275.78-32.85 275.78-31.55 273.98-29.35L273.98-29.35 254.63-3.1 269.78-3.7Q273.18-3.85 274.88-4.95L274.88-4.95Q275.78-4.05 275.78-2.9ZM285.12 1.6L285.12 1.6Q285.12-0.2 284.22-1.58 283.32-2.95 281.72-3.4L281.72-3.4Q281.82-4.55 282.7-5.4 283.57-6.25 284.82-6.25L284.82-6.25Q286.72-6.25 287.82-4.53 288.92-2.8 288.92-0.5L288.92-0.5Q288.92 3.05 287.22 5.7 285.52 8.35 283.62 8.35L283.62 8.35Q282.52 8.35 282.37 7.25L282.37 7.25Q285.12 5.3 285.12 1.6ZM348.62-33L348.62-33Q348.62-34.55 347.57-35.25L347.57-35.25Q348.57-36.25 349.94-36.25 351.32-36.25 351.99-35.5 352.67-34.75 352.67-33.68 352.67-32.6 352.37-31.55L352.37-31.55 344.47-2.6Q343.62 0.4 341.04 0.4 338.47 0.4 337.77-2.6L337.77-2.6 330.32-30.35 322.92-2.6Q322.17 0.4 319.47 0.4L319.47 0.4Q318.12 0.4 317.37-0.25 316.62-0.9 316.17-2.6L316.17-2.6 308.22-31.7Q307.67-33.75 306.27-34.35L306.27-34.35Q307.17-36.25 309.22-36.25L309.22-36.25Q310.37-36.25 311.14-35.45 311.92-34.65 312.37-32.6L312.37-32.6 319.67-4 327.47-33.7Q328.17-36.25 330.64-36.25 333.12-36.25 333.77-33.7L333.77-33.7 341.37-3.95 348.42-31.5Q348.62-32.35 348.62-33ZM360.76-14.65L370.12-15.4Q372.17-15.55 372.17-17.78 372.17-20 370.89-21.48 369.62-22.95 367.31-22.95 365.01-22.95 363.12-20.75 361.21-18.55 360.76-14.65L360.76-14.65ZM360.67-12.5Q360.67-7.6 362.79-5.25 364.92-2.9 368.87-2.9 372.81-2.9 375.42-5.5L375.42-5.5Q376.17-5.1 376.17-4.15L376.17-4.15Q376.17-2.5 373.76-1.03 371.37 0.45 368.06 0.45L368.06 0.45Q362.92 0.45 359.62-2.8 356.31-6.05 356.31-11.93 356.31-17.8 359.89-21.83 363.46-25.85 368.12-25.85L368.12-25.85Q371.81-25.85 374.14-23.3 376.46-20.75 376.46-17.5L376.46-17.5Q376.46-15.15 375.19-14.03 373.92-12.9 371.06-12.8L371.06-12.8 360.67-12.5ZM382.26-43Q384.46-43 384.46-39.65 384.46-36.3 383.84-33.02 383.21-29.75 382.31-29.75L382.31-29.75Q381.51-29.75 380.86-33.08 380.21-36.4 380.21-39.7 380.21-43 382.26-43L382.26-43ZM399.36-2.5L406.36-20.9Q406.81-22.1 406.81-23.15 406.81-24.2 406.11-24.95L406.11-24.95Q407.26-25.85 408.34-25.85 409.41-25.85 410.11-25.15 410.81-24.45 410.81-23.38 410.81-22.3 410.21-20.9L410.21-20.9 403.06-3.1Q402.31-1.15 401.51-0.38 400.71 0.4 399.29 0.4 397.86 0.4 397.01-0.4 396.16-1.2 395.51-3.1L395.51-3.1 389.16-21.65Q388.51-23.4 387.11-23.5L387.11-23.5Q387.16-24.55 387.96-25.2 388.76-25.85 389.81-25.85L389.81-25.85Q392.31-25.85 393.36-22.45L393.36-22.45 399.36-2.5ZM418.81-14.65L428.16-15.4Q430.21-15.55 430.21-17.78 430.21-20 428.93-21.48 427.66-22.95 425.36-22.95 423.06-22.95 421.16-20.75 419.26-18.55 418.81-14.65L418.81-14.65ZM418.71-12.5Q418.71-7.6 420.83-5.25 422.96-2.9 426.91-2.9 430.86-2.9 433.46-5.5L433.46-5.5Q434.21-5.1 434.21-4.15L434.21-4.15Q434.21-2.5 431.81-1.03 429.41 0.45 426.11 0.45L426.11 0.45Q420.96 0.45 417.66-2.8 414.36-6.05 414.36-11.93 414.36-17.8 417.93-21.83 421.51-25.85 426.16-25.85L426.16-25.85Q429.86-25.85 432.18-23.3 434.51-20.75 434.51-17.5L434.51-17.5Q434.51-15.15 433.23-14.03 431.96-12.9 429.11-12.8L429.11-12.8 418.71-12.5ZM480.35 4.95L480.35 4.95Q477.55 4.95 477.55 1.5L477.55 1.5 477.55-4.05Q476-2.2 473.48-0.88 470.95 0.45 467.95 0.45L467.95 0.45Q461.7 0.45 457.43-4.03 453.15-8.5 453.15-16.05L453.15-16.05Q453.15-25.05 458.33-30.65 463.5-36.25 471.75-36.25L471.75-36.25Q476.5-36.25 479.38-34.38 482.25-32.5 482.25-29.95L482.25-29.95Q482.25-28.8 481.45-28.08 480.65-27.35 479.53-27.35 478.4-27.35 477.65-27.75L477.65-27.75Q477.7-28 477.7-28.3L477.7-28.3Q477.7-30.2 475.98-31.6 474.25-33 470.75-33L470.75-33Q464.8-33 461.28-28.8 457.75-24.6 457.75-17.5 457.75-10.4 460.63-6.78 463.5-3.15 468.78-3.15 474.05-3.15 477.65-8.05L477.65-8.05 477.75-15.55 474.75-15.55Q471.8-15.55 468.65-15.3L468.65-15.3Q468.1-16.05 468.1-16.8L468.1-16.8Q468.1-17.95 469.88-18.45 471.65-18.95 475.68-18.95 479.7-18.95 480.78-18.25 481.85-17.55 481.85-15.6L481.85-15.6 481.75 1.45Q481.75 2.9 483 3.35L483 3.35Q482.05 4.95 480.35 4.95ZM505.38-20.38Q503.1-23 499.65-23 496.2-23 494.3-20.63 492.4-18.25 492.4-13.65L492.4-13.65Q492.4-7.7 494.73-5.03 497.05-2.35 500.5-2.35 503.95-2.35 505.8-4.75 507.65-7.15 507.65-11.75L507.65-11.75Q507.65-17.75 505.38-20.38ZM491.63-22.4Q495.1-25.85 500.05-25.85 505-25.85 508.48-22.38 511.95-18.9 511.95-12.68 511.95-6.45 508.48-3 505 0.45 500.05 0.45 495.1 0.45 491.63-3 488.15-6.45 488.15-12.7 488.15-18.95 491.63-22.4ZM523.85-22.2L523.15-22.2 523.15-6.35Q523.15-4.5 523.87-3.7 524.6-2.9 526.25-2.9L526.25-2.9Q529.35-2.9 532.1-5.55L532.1-5.55Q532.95-5.1 532.95-4.1L532.95-4.1Q532.95-2.4 530.75-0.98 528.55 0.45 525.35 0.45L525.35 0.45Q518.95 0.45 518.95-6.2L518.95-6.2 518.95-22.2Q514.9-22.35 514.9-24.15L514.9-24.15Q514.9-25.1 515.5-25.6L515.5-25.6Q517.25-25.35 518.2-25.35L518.2-25.35 518.95-25.35 518.95-29.4Q518.95-30.8 517.7-31.4L517.7-31.4Q518.7-32.95 520.3-32.95L520.3-32.95Q523.15-32.95 523.15-29.45L523.15-29.45 523.15-25.35 531.55-25.35Q531.75-25 531.75-24.5L531.75-24.5Q531.75-22.2 523.85-22.2L523.85-22.2ZM556.84-32.8L556.84-32.8 556.84-3.1Q556.84-1.7 558.04-1.15L558.04-1.15Q557.04 0.45 555.39 0.45L555.39 0.45Q552.64 0.45 552.64-3.05L552.64-3.05 552.64-32.75Q552.64-34.15 551.39-34.7L551.39-34.7Q552.29-36.25 553.99-36.25L553.99-36.25Q556.84-36.25 556.84-32.8ZM571.29-22.2L570.59-22.2 570.59-6.35Q570.59-4.5 571.31-3.7 572.04-2.9 573.69-2.9L573.69-2.9Q576.79-2.9 579.54-5.55L579.54-5.55Q580.39-5.1 580.39-4.1L580.39-4.1Q580.39-2.4 578.19-0.98 575.99 0.45 572.79 0.45L572.79 0.45Q566.39 0.45 566.39-6.2L566.39-6.2 566.39-22.2Q562.34-22.35 562.34-24.15L562.34-24.15Q562.34-25.1 562.94-25.6L562.94-25.6Q564.69-25.35 565.64-25.35L565.64-25.35 566.39-25.35 566.39-29.4Q566.39-30.8 565.14-31.4L565.14-31.4Q566.14-32.95 567.74-32.95L567.74-32.95Q570.59-32.95 570.59-29.45L570.59-29.45 570.59-25.35 578.99-25.35Q579.19-25 579.19-24.5L579.19-24.5Q579.19-22.2 571.29-22.2L571.29-22.2ZM611.73-29.05L605.28-11.5 617.33-11.5 611.73-29.05ZM626.33-0.85L626.33-0.85Q625.53 0.45 624.01 0.45 622.48 0.45 621.73-0.2 620.98-0.85 620.43-2.55L620.43-2.55 618.38-8.45 604.13-8.45 602.03-3Q600.73 0.45 598.73 0.45L598.73 0.45Q597.03 0.45 596.38-1.25L596.38-1.25Q597.53-1.7 598.18-3.6L598.18-3.6 609.93-33.25Q609.38-34.6 608.68-35.25L608.68-35.25Q609.83-36.25 611.06-36.25 612.28-36.25 612.96-35.5 613.63-34.75 614.23-33.1L614.23-33.1 624.43-3.4Q625.13-1.35 626.33-0.85ZM635.98-34.55L635.98-34.55 635.98-3.1Q635.98-1.65 637.23-1.15L637.23-1.15Q636.18 0.45 634.63 0.45L634.63 0.45Q631.83 0.45 631.83-3.05L631.83-3.05 631.83-34.45Q631.83-35.9 630.58-36.45L630.58-36.45Q631.43-38 633.18-38L633.18-38Q635.98-38 635.98-34.55ZM649.28-34.55L649.28-34.55 649.28-3.1Q649.28-1.65 650.53-1.15L650.53-1.15Q649.48 0.45 647.93 0.45L647.93 0.45Q645.13 0.45 645.13-3.05L645.13-3.05 645.13-34.45Q645.13-35.9 643.88-36.45L643.88-36.45Q644.73-38 646.48-38L646.48-38Q649.28-38 649.28-34.55ZM664.18-34.7L663.18-14.75Q663.13-13.9 663.13-12.55 663.13-11.2 663.53-10.05L663.53-10.05Q663.03-9.3 662.18-9.3L662.18-9.3Q660.28-9.3 660.08-12.6L660.08-12.6 659.38-34.7Q659.38-35 659.38-35.25L659.38-35.25Q659.38-36.95 659.98-37.98 660.58-39 661.73-39 662.88-39 663.55-37.98 664.23-36.95 664.23-35.4L664.23-35.4Q664.23-35.05 664.18-34.7L664.18-34.7ZM662.38-5.45Q663.58-5.45 664.28-4.75 664.98-4.05 664.98-2.85 664.98-1.65 663.93-0.6 662.88 0.45 661.65 0.45 660.43 0.45 659.75-0.25 659.08-0.95 659.08-2.18 659.08-3.4 660.13-4.42 661.18-5.45 662.38-5.45Z" opacity="1" transform="matrix(1,0,0,1,0,0)" fill="#fb8500" class="slogan-text-1" data-fill-palette-color="secondary" id="text-1"></path></svg></g></svg></g></svg></g></svg></g><g transform="matrix(1,0,0,1,408.09169102517967,0)"><svg viewBox="0 0 205.32234239999997 111.29272998479998" height="111.29272998479998" width="205.32234239999997"><g><svg xmlns="http://www.w3.org/2000/svg" xmlns:xlink="http://www.w3.org/1999/xlink" version="1.1" x="0" y="0" viewBox="0 117.23699999999997 512 277.524" enable-background="new 0 0 512 512" xml:space="preserve" height="111.29272998479998" width="205.32234239999997" class="icon-icon-0" data-fill-palette-color="accent" id="icon-0"><path fill="#fb8500" d="M501.313 238.336c-5.875 0-10.656 4.781-10.656 10.672 0 32.039-22.968 62.732-64.686 86.255-43.624 24.615-101.872 38.162-164.011 38.162-49.342 0-95.56-10.742-130.152-30.248-32.671-18.43-50.654-42.25-50.654-67.076 0-19.062 13.999-37.46 39.436-51.804 23.547-13.289 53.952-21.421 86.92-23.437-15.312 13.461-24.968 33.187-24.968 55.17 0 36.068 25.983 66.061 60.264 72.271 14.39 3.062 29.749 4.664 45.515 4.664 42.717 0 83.06-9.477 113.559-26.68 32.437-18.297 50.295-43.287 50.295-70.388 0-32.858-21.843-63.279-61.514-85.653-37.748-21.281-87.685-33.007-140.637-33.007-65.748 0-127.715 14.53-174.494 40.913-23.265 13.132-41.64 28.538-54.592 45.803C7.109 222.407 0.062 242.352 0 262.844c0.109 5.797 4.844 10.523 10.672 10.523 5.812 0 10.547-4.672 10.656-10.469 0-32.039 22.968-62.639 64.686-86.162 43.639-24.616 101.871-38.163 164.01-38.163 49.343 0 95.561 10.742 130.152 30.249 32.672 18.429 50.655 42.249 50.655 67.076 0 19.062-13.999 37.46-39.437 51.802-23.53 13.273-53.92 21.414-86.841 23.43 15.249-13.453 24.89-33.146 24.89-55.1 0-36.14-26.108-66.186-60.498-72.302-14.328-3.031-29.593-4.695-45.279-4.695-42.718 0-83.045 9.476-113.56 26.679-32.437 18.296-50.296 43.296-50.296 70.389 0 32.865 21.859 63.279 61.514 85.652 37.749 21.289 87.686 33.008 140.637 33.008 65.748 0 127.715-14.531 174.495-40.914 23.296-13.131 41.64-28.537 54.607-45.803C504.938 289.514 512 269.594 512 249.008 512 243.118 507.219 238.336 501.313 238.336z" data-fill-palette-color="accent"></path></svg></g></svg></g></svg></g></svg></g></svg></g><defs></defs></svg><rect width="395.52" height="71.75985250581519" fill="none" stroke="none" visibility="hidden"></rect></g></svg></g></svg>