<svg xmlns="http://www.w3.org/2000/svg" version="1.1" xmlns:xlink="http://www.w3.org/1999/xlink" xmlns:svgjs="http://svgjs.dev/svgjs" width="128" height="128" viewBox="0 0 128 128"><g transform="matrix(0.8046875,0,0,0.8046875,12.333870967741937,12.333870967741937)"><svg viewBox="0 0 155 155" data-background-color="#ffffff" preserveAspectRatio="xMidYMid meet" height="128" width="128" xmlns="http://www.w3.org/2000/svg" xmlns:xlink="http://www.w3.org/1999/xlink"><g id="tight-bounds" transform="matrix(1,0,0,1,0.25,0.25)"><svg viewBox="0 0 154.5 154.5" height="154.5" width="154.5"><g><svg></svg></g><g><svg viewBox="0 0 154.5 154.5" height="154.5" width="154.5"><g transform="matrix(1,0,0,1,59.016757278,67.36687020863218)"><svg viewBox="0 0 36.46648544399999 19.766259582735653" height="19.766259582735653" width="36.46648544399999"><g><svg viewBox="0 0 36.46648544399999 19.766259582735653" height="19.766259582735653" width="36.46648544399999"><g><svg viewBox="0 0 36.46648544399999 19.766259582735653" height="19.766259582735653" width="36.46648544399999"><g id="textblocktransform"><svg viewBox="0 0 36.46648544399999 19.766259582735653" height="19.766259582735653" width="36.46648544399999" id="textblock"><g><svg viewBox="0 0 36.46648544399999 19.766259582735653" height="19.766259582735653" width="36.46648544399999"><g><svg viewBox="0 0 36.46648544399999 19.766259582735653" height="19.766259582735653" width="36.46648544399999"><g><svg xmlns="http://www.w3.org/2000/svg" xmlns:xlink="http://www.w3.org/1999/xlink" version="1.1" x="0" y="0" viewBox="0 117.23699999999997 512 277.524" enable-background="new 0 0 512 512" xml:space="preserve" height="19.766259582735653" width="36.46648544399999" class="icon-icon-0" data-fill-palette-color="accent" id="icon-0"><path fill="#fb8500" d="M501.313 238.336c-5.875 0-10.656 4.781-10.656 10.672 0 32.039-22.968 62.732-64.686 86.255-43.624 24.615-101.872 38.162-164.011 38.162-49.342 0-95.56-10.742-130.152-30.248-32.671-18.43-50.654-42.25-50.654-67.076 0-19.062 13.999-37.46 39.436-51.804 23.547-13.289 53.952-21.421 86.92-23.437-15.312 13.461-24.968 33.187-24.968 55.17 0 36.068 25.983 66.061 60.264 72.271 14.39 3.062 29.749 4.664 45.515 4.664 42.717 0 83.06-9.477 113.559-26.68 32.437-18.297 50.295-43.287 50.295-70.388 0-32.858-21.843-63.279-61.514-85.653-37.748-21.281-87.685-33.007-140.637-33.007-65.748 0-127.715 14.53-174.494 40.913-23.265 13.132-41.64 28.538-54.592 45.803C7.109 222.407 0.062 242.352 0 262.844c0.109 5.797 4.844 10.523 10.672 10.523 5.812 0 10.547-4.672 10.656-10.469 0-32.039 22.968-62.639 64.686-86.162 43.639-24.616 101.871-38.163 164.01-38.163 49.343 0 95.561 10.742 130.152 30.249 32.672 18.429 50.655 42.249 50.655 67.076 0 19.062-13.999 37.46-39.437 51.802-23.53 13.273-53.92 21.414-86.841 23.43 15.249-13.453 24.89-33.146 24.89-55.1 0-36.14-26.108-66.186-60.498-72.302-14.328-3.031-29.593-4.695-45.279-4.695-42.718 0-83.045 9.476-113.56 26.679-32.437 18.296-50.296 43.296-50.296 70.389 0 32.865 21.859 63.279 61.514 85.652 37.749 21.289 87.686 33.008 140.637 33.008 65.748 0 127.715-14.531 174.495-40.914 23.296-13.131 41.64-28.537 54.607-45.803C504.938 289.514 512 269.594 512 249.008 512 243.118 507.219 238.336 501.313 238.336z" data-fill-palette-color="accent"></path></svg></g></svg></g></svg></g></svg></g></svg></g></svg></g></svg></g><g></g></svg></g><defs></defs></svg><rect width="154.5" height="154.5" fill="none" stroke="none" visibility="hidden"></rect></g></svg></g></svg>